<?xml version="1.0" standalone="no"?>
<!DOCTYPE svg PUBLIC "-//W3C//DTD SVG 20010904//EN"
 "http://www.w3.org/TR/2001/REC-SVG-20010904/DTD/svg10.dtd">
<svg version="1.0" xmlns="http://www.w3.org/2000/svg"
 width="783.000000pt" height="319.000000pt" viewBox="0 0 783.000000 319.000000"
 preserveAspectRatio="xMidYMid meet">

<g transform="translate(0.000000,319.000000) scale(0.100000,-0.100000)"
fill="#000000" stroke="none">
<path d="M2180 2260 c-120 -19 -221 -70 -308 -154 -131 -126 -191 -299 -191
-546 -1 -189 24 -303 92 -434 112 -213 356 -322 641 -286 289 36 477 233 527
551 15 94 6 321 -16 409 -54 221 -202 383 -405 444 -65 20 -260 29 -340 16z
m335 -160 c44 -17 76 -40 120 -84 107 -108 148 -232 149 -456 2 -298 -78 -466
-262 -553 -65 -31 -71 -32 -207 -32 l-140 0 -75 37 c-85 41 -123 77 -173 161
-61 101 -81 197 -81 382 0 139 3 170 23 235 57 186 146 281 304 325 80 23 265
15 342 -15z"/>
<path d="M3503 2255 c-34 -7 -82 -22 -107 -34 -60 -26 -136 -98 -166 -158 -22
-42 -25 -61 -25 -153 0 -92 3 -112 26 -160 50 -107 139 -171 350 -253 152 -59
192 -80 244 -129 54 -49 68 -90 63 -178 -5 -92 -39 -143 -123 -184 -54 -27
-72 -30 -176 -34 -122 -5 -216 9 -339 48 -35 11 -64 20 -66 20 -2 0 -4 -32 -4
-71 l0 -70 37 -15 c116 -49 411 -65 528 -30 134 40 217 102 268 200 30 57 32
68 32 166 0 91 -3 111 -24 155 -40 80 -97 128 -223 189 -62 29 -131 59 -153
66 -50 16 -169 75 -208 104 -51 37 -77 94 -77 170 0 81 16 121 64 163 83 73
272 84 453 25 l92 -30 20 61 c12 34 21 64 21 69 0 12 -150 56 -234 67 -101 14
-196 13 -273 -4z"/>
<path d="M330 1551 l0 -701 203 0 c209 0 329 10 432 36 225 57 384 219 442
449 27 107 24 363 -5 469 -58 210 -200 351 -422 417 -68 20 -102 23 -362 26
l-288 5 0 -701z m584 544 c174 -47 284 -158 332 -336 24 -89 24 -309 0 -399
-52 -192 -182 -315 -377 -356 -49 -10 -118 -14 -227 -12 l-157 3 -3 549 c-2
426 1 552 10 564 11 12 40 14 188 9 113 -4 196 -11 234 -22z"/>
<path d="M4172 2183 l3 -68 215 -5 215 -5 3 -627 2 -628 75 0 75 0 0 630 0
630 220 0 220 0 0 70 0 70 -515 0 -516 0 3 -67z"/>
<path d="M5274 2168 c25 -46 128 -238 230 -427 l186 -344 2 -271 3 -271 78 -3
77 -3 0 279 c0 153 4 282 9 287 7 9 440 803 449 827 2 4 -34 8 -80 8 l-83 0
-88 -168 c-48 -92 -112 -214 -143 -272 -30 -58 -73 -140 -96 -182 -22 -43 -44
-76 -48 -73 -5 3 -72 128 -150 278 -79 149 -160 305 -182 345 l-40 72 -84 0
-84 0 44 -82z"/>
<path d="M6512 1553 l3 -698 78 -3 77 -3 0 275 0 274 72 66 c40 36 75 66 78
66 3 0 53 -64 111 -142 58 -79 172 -232 252 -340 l147 -198 85 0 c47 0 85 4
85 8 0 5 -126 182 -280 393 -153 211 -279 387 -280 391 0 8 513 573 530 583
27 17 2 25 -77 25 l-88 -1 -127 -142 c-70 -78 -143 -158 -161 -177 -18 -19
-97 -107 -176 -195 -80 -88 -150 -164 -158 -168 -11 -7 -13 53 -13 338 l0 345
-80 0 -80 0 2 -697z"/>
</g>
</svg>
